<svg width="69" height="16" viewBox="0 0 69 16" fill="none" xmlns="http://www.w3.org/2000/svg">
<path d="M16.5 8C16.5 12.4183 12.9183 16 8.5 16C4.08172 16 0.5 12.4183 0.5 8C0.5 3.58172 4.08172 0 8.5 0C12.9183 0 16.5 3.58172 16.5 8Z" fill="#EFEFEF"/>
<path d="M42.5 8C42.5 12.4183 38.9183 16 34.5 16C30.0817 16 26.5 12.4183 26.5 8C26.5 3.58172 30.0817 0 34.5 0C38.9183 0 42.5 3.58172 42.5 8Z" fill="#FF9900"/>
<path d="M68.5 8C68.5 12.4183 64.9183 16 60.5 16C56.0817 16 52.5 12.4183 52.5 8C52.5 3.58172 56.0817 0 60.5 0C64.9183 0 68.5 3.58172 68.5 8Z" fill="#EFEFEF"/>
</svg>
